<svg id="Capa_1" enable-background="new 0 0 512 512" height="512" viewBox="0 0 512 512" width="512" xmlns="http://www.w3.org/2000/svg"><g><g><path d="m293.054 453.997 137.998-98.7v-297.05c0-5.043-5.702-7.975-9.804-5.041l-128.194 91.688z" fill="#eaeaea"/></g><g><path d="m421.248 53.205-12.161 8.698v293.395l-116.032 82.989v15.71l137.998-98.7v-297.05c-.001-5.044-5.703-7.976-9.805-5.042z" fill="#c6d0da"/></g><g><path d="m218.946 453.997-137.998-98.7v-297.05c0-5.043 5.702-7.975 9.804-5.041l128.194 91.688z" fill="#eaeaea"/></g><g><path d="m90.752 53.205c-4.102-2.934-9.804-.002-9.804 5.042v12.106l104.219 74.54v284.945l33.779 24.159v-309.104z" fill="#c6d0da"/></g><g><path d="m218.946 453.997-181.928-78.97v-299.657c0-4.462 4.573-7.462 8.666-5.686l173.262 75.208z" fill="#eaeaea"/></g><g><path d="m45.683 69.685c-4.093-1.777-8.666 1.224-8.666 5.686v11.528l133.605 57.994v288.129l48.323 20.976v-309.105z" fill="#c6d0da"/></g><g><path d="m474.983 376.261-181.928 77.736v-309.104l173.295-74.047c4.089-1.747 8.634 1.253 8.634 5.7v299.715z" fill="#eaeaea"/></g><g><path d="m466.349 70.846-13.332 5.696v.003 299.716l-159.963 68.35v9.386l181.928-77.736v-299.715c.001-4.447-4.544-7.448-8.633-5.7z" fill="#c6d0da"/></g><g><path d="m504.504 99.61-211.449 45.283v.078c-11.65 3.866-24.107 5.965-37.054 5.965-12.948 0-25.404-2.099-37.054-5.965v-.078l-211.451-45.283c-3.858-.827-7.496 2.115-7.496 6.06v296.427c0 2.923 2.042 5.449 4.9 6.061l214.045 45.839c11.65 3.866 62.459 3.866 74.109 0l214.046-45.839c2.858-.612 4.9-3.138 4.9-6.061v-296.427c0-3.945-3.638-6.887-7.496-6.06z" fill="#7fd061"/></g><g><path d="m0 346.109v55.989c0 2.923 2.042 5.449 4.9 6.061l214.045 45.839v-60.836z" fill="#49a61f"/></g><g><path d="m504.504 99.61-42.639 9.131v243.221c0 2.923-2.042 5.449-4.9 6.061l-163.91 35.102v60.872l214.045-45.839c2.858-.612 4.9-3.138 4.9-6.061v-296.427c0-3.945-3.638-6.887-7.496-6.06z" fill="#49a61f"/></g><g><path d="m378.76 108.272v94.959c0 2.948 3.651 4.324 5.597 2.11l12.731-14.487c.819-.932 2.27-.932 3.088 0l12.731 14.487c1.946 2.214 5.597.838 5.597-2.11v-111.942z" fill="#f6e738"/></g><g><path d="m398.632 99.781v90.374c.567 0 1.135.233 1.544.699l12.731 14.487c1.946 2.214 5.597.838 5.597-2.11v-111.942z" fill="#ecc32e"/></g><g><path d="m441.726 293.451-72.69 15.736c-8.405 1.82-16.344-4.585-16.344-13.185v-31.633c0-6.351 4.429-11.841 10.636-13.185l72.69-15.736c8.405-1.82 16.344 4.585 16.344 13.185v31.633c0 6.351-4.429 11.841-10.636 13.185z" fill="#eaeaea"/></g><g><path d="m256 150.936c-12.948 0-25.404-2.099-37.054-5.965v309.026c11.65 3.866 24.107 5.965 37.054 5.965 12.948 0 25.404-2.099 37.054-5.965v-309.026c-11.65 3.866-24.106 5.965-37.054 5.965z" fill="#acdf91"/></g><g><path d="m218.946 393.01v60.988c11.65 3.866 24.107 5.965 37.054 5.965 12.948 0 25.404-2.099 37.054-5.965v-60.988c-11.65 3.866-24.107 5.965-37.054 5.965-12.948 0-25.404-2.099-37.054-5.965z" fill="#7fd061"/></g></g></svg>