<?xml version="1.0" encoding="iso-8859-1"?>
<!-- Generator: Adobe Illustrator 19.0.0, SVG Export Plug-In . SVG Version: 6.00 Build 0)  -->
<svg version="1.1" id="Capa_1" xmlns="http://www.w3.org/2000/svg" xmlns:xlink="http://www.w3.org/1999/xlink" x="0px" y="0px"
	 viewBox="0 0 512 512" style="enable-background:new 0 0 512 512;" xml:space="preserve">
<path style="fill:#6A56A8;" d="M392,0H48c-4.418,0-8,3.582-8,8v448c0,4.418,3.582,8,8,8h344V0z"/>
<polygon style="fill:#E57D37;" points="392,456 120,512 120,64 392,0 "/>
<path style="fill:#EDECF1;" d="M464,64H120v448h344c4.418,0,8-3.582,8-8V72C472,67.582,468.418,64,464,64z"/>
<rect x="120" y="64" style="fill:#DBD9E2;" width="16" height="448"/>
<path style="fill:#6A56A8;" d="M408,120H184c-4.418,0-8,3.582-8,8v104c0,4.418,3.582,8,8,8h224c4.418,0,8-3.582,8-8V128
	C416,123.582,412.418,120,408,120z"/>
<rect x="184" y="128" style="fill:#7366AA;" width="224" height="104"/>
<path style="fill:#F09C48;" d="M320,264H184c-4.418,0-8,3.582-8,8v176c0,4.418,3.582,8,8,8h136c4.418,0,8-3.582,8-8V272
	C328,267.582,324.418,264,320,264z"/>
<rect x="184" y="272" style="fill:#EDBC53;" width="136" height="176"/>
<g>
	<path style="fill:#C8C6D4;" d="M408,304h-56c-4.418,0-8-3.582-8-8s3.582-8,8-8h56c4.418,0,8,3.582,8,8S412.418,304,408,304z"/>
	<path style="fill:#C8C6D4;" d="M408,336h-56c-4.418,0-8-3.582-8-8s3.582-8,8-8h56c4.418,0,8,3.582,8,8S412.418,336,408,336z"/>
	<path style="fill:#C8C6D4;" d="M408,368h-56c-4.418,0-8-3.582-8-8s3.582-8,8-8h56c4.418,0,8,3.582,8,8S412.418,368,408,368z"/>
	<path style="fill:#C8C6D4;" d="M408,400h-56c-4.418,0-8-3.582-8-8s3.582-8,8-8h56c4.418,0,8,3.582,8,8S412.418,400,408,400z"/>
	<path style="fill:#C8C6D4;" d="M408,432h-56c-4.418,0-8-3.582-8-8s3.582-8,8-8h56c4.418,0,8,3.582,8,8S412.418,432,408,432z"/>
</g>
<g>
</g>
<g>
</g>
<g>
</g>
<g>
</g>
<g>
</g>
<g>
</g>
<g>
</g>
<g>
</g>
<g>
</g>
<g>
</g>
<g>
</g>
<g>
</g>
<g>
</g>
<g>
</g>
<g>
</g>
</svg>
