<svg id="Capa_1" enable-background="new 0 0 512 512" height="512" viewBox="0 0 512 512" width="512" xmlns="http://www.w3.org/2000/svg"><g><g><path d="m512 98.99v314.02h-256l-30.4-38.76 30.4-54.8 9.34-16.36 47.66-19.07 18.02 11.61 11.94-24.94 13.61-124.81-7.23-46.89z" fill="#0d90bc"/><path d="m0 98.99v314.02h256v-93.56l-9.34-16.36-47.66-19.07-18.02 11.61-11.94-24.94-13.61-124.81 7.23-46.89z" fill="#0fa8dc"/></g><g><path d="m385.99 189.45c0 43.85-21.71 82.64-54.97 106.18-2.02 1.44-4.1 2.82-6.21 4.14-19.96 12.47-43.55 19.68-68.81 19.68l-51.85-110.23 51.85-110.23h93.34c22.68 23.4 36.65 55.3 36.65 90.46z" fill="#e2e2eb"/><path d="m256 98.99v220.46c-25.26 0-48.85-7.21-68.81-19.68-2.11-1.32-4.19-2.7-6.21-4.14-33.26-23.54-54.97-62.33-54.97-106.18 0-35.16 13.97-67.06 36.65-90.46z" fill="#f5f5f8"/></g><g><g><path d="m331.04 292.15v3.37l-.02.11c-2.02 1.44-4.1 2.82-6.21 4.14-19.96 12.47-43.55 19.68-68.81 19.68l-15.59-45.74 15.59-42.87h13.73c33.87 0 61.31 27.45 61.31 61.31z" fill="#edbe00"/><path d="m256 230.84v88.61c-25.26 0-48.85-7.21-68.81-19.68-2.11-1.32-4.19-2.7-6.21-4.14l-.02-.11v-3.37c0-33.86 27.44-61.31 61.31-61.31z" fill="#fc0"/></g><g><path d="m298.482 188.358c0 23.457-19.014 42.471-42.482 42.482l-18.096-42.481 18.096-42.483c23.468.011 42.482 19.025 42.482 42.482z" fill="#edbe00"/><path d="m213.518 188.358c0 23.457 19.014 42.471 42.482 42.482v-84.963c-23.468.01-42.482 19.024-42.482 42.481z" fill="#fc0"/></g></g><g><path d="m48.111 270.687h30v30h-30z" fill="#f5f5f8"/><g><g><path d="m48.111 334.414h103.436v30h-103.436z" fill="#f5f5f8"/></g><g><path d="m360.454 334.414h103.436v30h-103.436z" fill="#e2e2eb"/></g></g></g></g></svg>