<svg viewBox="0 0 512 512" xmlns="http://www.w3.org/2000/svg" xmlns:xlink="http://www.w3.org/1999/xlink"><linearGradient id="a" gradientTransform="matrix(1 0 0 -1 0 -16432)" gradientUnits="userSpaceOnUse" x1="0" x2="512" y1="-16688" y2="-16688"><stop offset="0" stop-color="#1de8f1"/><stop offset="1" stop-color="#00c7ce"/></linearGradient><path d="m512 256c0 141.386719-114.613281 256-256 256s-256-114.613281-256-256 114.613281-256 256-256 256 114.613281 256 256zm0 0" fill="url(#a)"/><g fill="#fff"><path d="m232.738281 88.5h-129.238281c-8.285156 0-15 6.714844-15 15v129.238281c0 8.28125 6.714844 15 15 15h129.238281c8.28125 0 15-6.71875 15-15v-129.238281c0-8.285156-6.71875-15-15-15zm-15 129.238281h-99.238281v-99.238281h99.238281zm0 0"/><path d="m414.238281 265.402344c-5.605469-2.320313-12.054687-1.039063-16.34375 3.253906l-129.238281 129.238281c-4.289062 4.289063-5.574219 10.742188-3.253906 16.347657 2.324218 5.605468 7.792968 9.257812 13.859375 9.257812h129.238281c8.285156 0 15-6.714844 15-15v-129.238281c0-6.066407-3.65625-11.535157-9.261719-13.859375zm-20.738281 128.097656h-78.023438l78.023438-78.023438zm0 0"/><path d="m343.882812 247.738281c43.898438 0 79.617188-35.71875 79.617188-79.621093 0-43.898438-35.71875-79.617188-79.617188-79.617188-43.902343 0-79.621093 35.71875-79.621093 79.617188 0 43.902343 35.71875 79.621093 79.621093 79.621093zm0-129.238281c27.359376 0 49.617188 22.257812 49.617188 49.617188 0 27.359374-22.257812 49.621093-49.617188 49.621093-27.363281 0-49.621093-22.261719-49.621093-49.621093 0-27.359376 22.257812-49.617188 49.621093-49.617188zm0 0"/><path d="m243.34375 268.65625c-5.855469-5.855469-15.355469-5.855469-21.210938 0l-54.015624 54.011719-54.011719-54.011719c-5.855469-5.855469-15.351563-5.855469-21.210938 0s-5.859375 15.355469 0 21.210938l54.011719 54.015624-54.011719 54.011719c-5.859375 5.855469-5.859375 15.351563 0 21.210938 2.929688 2.929687 6.765625 4.394531 10.605469 4.394531s7.679688-1.464844 10.605469-4.394531l54.011719-54.011719 54.011718 54.011719c2.929688 2.929687 6.769532 4.394531 10.605469 4.394531 3.839844 0 7.679687-1.464844 10.609375-4.394531 5.855469-5.855469 5.855469-15.355469 0-21.210938l-54.015625-54.011719 54.015625-54.015624c5.859375-5.855469 5.859375-15.351563 0-21.210938zm0 0"/></g></svg>