<svg id="icons" enable-background="new 0 0 64 64" height="512" viewBox="0 0 64 64" width="512" xmlns="http://www.w3.org/2000/svg"><path d="m23.009 4.5h17.99c0 4.97-4.029 9-9 9-4.97 0-8.99-4.03-8.99-9z" fill="#545c66"/><path d="m53.01 6.5-12.011-2c0 4.97-4.029 9-9 9-4.97 0-8.99-4.03-8.99-9h-.01l-12 2-10 10 7.01 10 7-5v35.01 1c0 1.101.891 1.99 1.99 1.99h30c1.111 0 2-.89 2-1.99v-1-35.01l7.001 5 7.001-10zm-28.011 14c1.11 0 2 .89 2 2 0 1.101-.89 2-2 2-1.1 0-2-.899-2-2 0-1.11.9-2 2-2zm3 8 2.5 3.75 4.5-6.75h.01l8 12h-16-5.01z" fill="#656d78"/><path d="m33 8.497h-2c-.553 0-1-.448-1-1s.447-1 1-1h2c.553 0 1 .448 1 1s-.447 1-1 1z" fill="#434a54"/><path d="m48.996 55.509h-33.987v1.001-.002h33.987c.001 1.001.002 1 .003 1v-.998-1c-.001 0-.002-.001-.003-.001z" fill="#545c66"/><path d="m43.002 36.501h-15.329l2.275-3.423c.165.109.355.173.551.173.19 0 .383-.055.554-.168.459-.306.584-.927.277-1.387l-2.5-3.752c-.155-.232-.391-.378-.645-.427-.063-.012-.126 0-.189 0s-.127-.012-.189 0c-.255.049-.49.194-.645.427l-5.998 9.002c-.019.028-.021.061-.037.091-.029.054-.051.109-.069.17-.022.071-.038.141-.044.215-.002.027-.016.051-.016.079 0 .03.015.055.017.084.007.075.021.146.044.218.019.056.038.106.064.157.032.061.069.113.113.167.041.05.084.094.135.135.026.022.041.052.07.071.036.024.076.034.113.054.032.016.062.031.095.044.113.042.229.07.346.07h.002.001 21.004c.553 0 1-.447 1-1s-.447-1-1-1z" fill="#e6e9ed"/><path d="m43.768 38.121c.04-.05.074-.099.104-.153.03-.056.053-.112.072-.175.02-.065.033-.129.04-.198.003-.032.019-.061.019-.094 0-.031-.015-.059-.018-.089-.006-.067-.021-.13-.04-.195-.02-.066-.044-.128-.076-.188-.015-.027-.017-.057-.034-.083l-7.996-12.002c-.155-.233-.393-.379-.648-.427-.063-.012-.125-.001-.188-.001s-.125-.011-.188.001c-.256.048-.493.193-.648.427l-7.997 12.002c-.018.027-.021.059-.035.087-.031.057-.054.115-.073.179-.021.068-.036.135-.042.205-.002.029-.017.054-.017.084 0 .031.015.059.018.089.007.072.021.14.042.209.019.058.04.111.068.165.03.058.066.108.108.16s.087.098.14.14c.025.021.04.051.068.069.035.023.074.033.11.052.033.017.063.033.099.046.112.042.229.07.345.07h.001.001 15.999.001c.116 0 .231-.028.344-.069.036-.014.068-.031.103-.049.036-.018.073-.027.107-.05.027-.019.042-.047.066-.066.055-.044.102-.092.145-.146z" fill="#f5f7fa"/><path d="m24.999 20c1.388 0 2.5 1.112 2.5 2.5 0 1.376-1.112 2.5-2.5 2.5-1.374 0-2.5-1.124-2.5-2.5 0-1.388 1.126-2.5 2.5-2.5z" fill="#ffce54"/></svg>