<?xml version="1.0" encoding="iso-8859-1"?>
<!-- Generator: Adobe Illustrator 19.0.0, SVG Export Plug-In . SVG Version: 6.00 Build 0)  -->
<svg version="1.1" id="Capa_1" xmlns="http://www.w3.org/2000/svg" xmlns:xlink="http://www.w3.org/1999/xlink" x="0px" y="0px"
	 viewBox="0 0 464 464" style="enable-background:new 0 0 464 464;" xml:space="preserve">
<path style="fill:#C0E5E7;" d="M140,40h264v392H140V40z"/>
<path style="fill:#71C285;" d="M140,40c0-22.091-17.909-40-40-40S60,17.909,60,40v392h80V40z"/>
<path style="fill:#4D8157;" d="M140,432v-8c0-22.091-17.909-40-40-40s-40,17.909-40,40s17.909,40,40,40h224v-32H140z"/>
<path style="fill:#29ABE2;" d="M172,72h200v80H172V72z"/>
<path style="fill:#F15A24;" d="M172,184h96v88h-96V184z"/>
<path style="fill:#24AE5F;" d="M276,304h96v96h-96V304z"/>
<g>
	<path style="fill:#29485A;" d="M292,184h88v16h-88V184z"/>
	<path style="fill:#29485A;" d="M292,216h88v16h-88V216z"/>
	<path style="fill:#29485A;" d="M292,248h88v16h-88V248z"/>
	<path style="fill:#29485A;" d="M164,296h88v16h-88V296z"/>
	<path style="fill:#29485A;" d="M164,328h88v16h-88V328z"/>
	<path style="fill:#29485A;" d="M164,360h88v16h-88V360z"/>
	<path style="fill:#29485A;" d="M164,392h88v16h-88V392z"/>
</g>
<g>
</g>
<g>
</g>
<g>
</g>
<g>
</g>
<g>
</g>
<g>
</g>
<g>
</g>
<g>
</g>
<g>
</g>
<g>
</g>
<g>
</g>
<g>
</g>
<g>
</g>
<g>
</g>
<g>
</g>
</svg>
