<svg id="Capa_1" enable-background="new 0 0 508.584 508.584" height="512" viewBox="0 0 508.584 508.584" width="512" xmlns="http://www.w3.org/2000/svg"><g><path d="m429.654 358.584v-59.547l-79.667-10-85.333 10v59.547l82.5 10z" fill="#00aadf"/><path d="m203.979 132.88-22.325-6.546 5.671-18.407-16.65-24.955-22.521-2.638 5.392-21.998-34.797-48.053-99.819 66.601 102.33 146.704 58.144 12.746 85.25-12.747z" fill="#ffdc40"/><path d="m154.068 166.183 49.911-33.303-6.334-9.491-1.996-2.986-8.324-12.476-49.907 33.301z" fill="#fabe2c"/><path d="m133.244 107.947 37.431-24.975-8.325-12.479-8.804-12.157-36.952 24.656z" fill="#fabe2c"/><path d="m264.654 358.584-10 37.5 10 37.5 80 10 85-10v-75z" fill="#007fc5"/><path d="m369.654 0-45 135.584 49.999 10 40.001-10z" fill="#ab5a1d"/><path d="m414.654 163.584-45 10-45-10v-28h90z" fill="#fabe2c"/><path d="m324.654 163.584v63.061l45 6.939 45-6.939v-63.061z" fill="#61729b"/><path d="m39.654 223.584v45l126.334 10 98.666-10 10-22.5-10-22.5z" fill="#eef4ff"/><path d="m489.654 223.584h-225v45l112.5 10 112.5-10z" fill="#d9e6fc"/><path d="m429.654 478.584v-45h-165l-10 22.5 10 22.5 77.5 10z" fill="#00aadf"/><path d="m264.654 298.584-74.667-10-90.333 10v180l82.5 10 82.5-10v-45-75z" fill="#00d7df"/><path d="m264.654 478.584h165v30h-165z" fill="#007fc5"/><path d="m99.654 478.584h165v30h-165z" fill="#00aadf"/><path d="m39.654 268.584v30.547h225l10-15.773-10-14.774z" fill="#d9e6fc"/><path d="m264.654 268.584h225v30.547h-225z" fill="#bed9fd"/></g></svg>