<?xml version="1.0" encoding="iso-8859-1"?>
<!-- Generator: Adobe Illustrator 19.0.0, SVG Export Plug-In . SVG Version: 6.00 Build 0)  -->
<svg version="1.1" id="Capa_1" xmlns="http://www.w3.org/2000/svg" xmlns:xlink="http://www.w3.org/1999/xlink" x="0px" y="0px"
	 viewBox="0 0 512 512" style="enable-background:new 0 0 512 512;" xml:space="preserve">
<g>
	<path style="fill:#FDD7AD;" d="M503.79,100.723L353.457,5.826c-2.595-1.71-5.631-2.63-8.739-2.648
		c-3.429-0.18-6.835,0.649-9.799,2.383L177.081,100.37c-2.755,1.624-5.895,2.477-9.092,2.472c-3.345,0.009-6.623-0.94-9.446-2.737
		L27.101,17.126c-5.439-3.443-12.32-3.653-17.959-0.549S0,25.607,0,32.044v364.315c0.015,6.047,3.109,11.67,8.21,14.919
		l150.334,94.897c2.595,1.71,5.631,2.63,8.739,2.648c3.429,0.18,6.835-0.649,9.799-2.383l157.837-94.808
		c2.755-1.624,5.895-2.477,9.092-2.472c3.345-0.009,6.623,0.941,9.446,2.737l131.443,82.979c5.439,3.442,12.32,3.653,17.959,0.549
		c5.639-3.104,9.142-9.031,9.142-15.467V115.641C511.985,109.594,508.891,103.971,503.79,100.723z"/>
	<path style="fill:#CBB292;" d="M344.717,3.178l-0.441,5.65v397.241l-0.265,3.09c-3.198-0.006-6.338,0.848-9.092,2.472
		l-157.837,94.808c-2.963,1.735-6.37,2.563-9.799,2.383l0.441-5.65V105.931l0.265-3.09c3.198,0.006,6.338-0.848,9.092-2.472
		L334.919,5.561C337.882,3.826,341.288,2.998,344.717,3.178z"/>
	<g>
		<path style="fill:#7F6E5D;" d="M132.405,308.966c-1.677,0.001-3.319-0.477-4.733-1.379l-97.103-61.793
			c-4.114-2.619-5.325-8.076-2.707-12.19c2.619-4.114,8.076-5.326,12.19-2.707l97.103,61.793c3.314,2.108,4.836,6.151,3.736,9.921
			C139.791,306.381,136.332,308.971,132.405,308.966z"/>
		<path style="fill:#7F6E5D;" d="M132.405,353.103c-1.677,0.001-3.319-0.477-4.733-1.379l-97.103-61.793
			c-4.114-2.619-5.325-8.076-2.707-12.19c2.619-4.114,8.076-5.326,12.19-2.707l97.103,61.793c3.314,2.108,4.836,6.151,3.736,9.921
			C139.791,350.519,136.332,353.109,132.405,353.103z"/>
	</g>
	<polyline style="fill:#2FA8CC;" points="476.69,211.862 476.69,141.241 379.586,79.448 379.586,158.897 	"/>
	<g>
		<path style="fill:#7F6E5D;" d="M476.681,308.966c-1.677,0.001-3.319-0.477-4.733-1.379l-97.103-61.793
			c-4.114-2.619-5.326-8.076-2.707-12.19c2.619-4.114,8.076-5.326,12.19-2.707l97.103,61.793c3.314,2.108,4.836,6.151,3.736,9.921
			C484.067,306.381,480.608,308.971,476.681,308.966z"/>
		<path style="fill:#7F6E5D;" d="M476.681,353.103c-1.677,0.001-3.319-0.477-4.733-1.379l-97.103-61.793
			c-4.114-2.619-5.326-8.076-2.707-12.19c2.619-4.114,8.076-5.326,12.19-2.707l97.103,61.793c3.314,2.108,4.836,6.151,3.736,9.921
			C484.067,350.519,480.608,353.109,476.681,353.103z"/>
		<path style="fill:#7F6E5D;" d="M211.871,308.966c-3.927,0.005-7.386-2.584-8.486-6.354c-1.1-3.77,0.422-7.814,3.736-9.921
			l97.103-61.793c2.661-1.694,6.024-1.84,8.821-0.382c2.798,1.458,4.605,4.297,4.741,7.448c0.136,3.151-1.419,6.136-4.08,7.83
			l-97.103,61.793C215.19,308.488,213.548,308.967,211.871,308.966z"/>
		<path style="fill:#7F6E5D;" d="M211.871,353.103c-3.927,0.005-7.386-2.584-8.486-6.354c-1.1-3.77,0.422-7.814,3.736-9.921
			l97.103-61.793c2.661-1.694,6.024-1.84,8.821-0.382c2.798,1.458,4.605,4.297,4.741,7.448c0.136,3.151-1.419,6.136-4.08,7.83
			l-97.103,61.793C215.19,352.626,213.548,353.105,211.871,353.103z"/>
		<path style="fill:#7F6E5D;" d="M211.871,194.207c-3.927,0.005-7.386-2.584-8.486-6.354c-1.1-3.77,0.422-7.814,3.736-9.921
			l97.103-61.793c2.661-1.694,6.024-1.84,8.821-0.382c2.798,1.458,4.605,4.297,4.741,7.448s-1.419,6.136-4.08,7.83l-97.103,61.793
			C215.19,193.729,213.548,194.208,211.871,194.207z"/>
		<path style="fill:#7F6E5D;" d="M211.871,238.345c-3.927,0.005-7.386-2.584-8.486-6.354c-1.1-3.77,0.422-7.814,3.736-9.921
			l97.103-61.793c2.661-1.694,6.024-1.84,8.821-0.382c2.798,1.458,4.605,4.297,4.741,7.448c0.136,3.151-1.419,6.136-4.08,7.83
			l-97.103,61.793C215.19,237.867,213.548,238.346,211.871,238.345z"/>
	</g>
	<polygon style="fill:#65DDB9;" points="476.69,211.862 476.69,247.172 379.586,185.379 379.586,158.897 414.897,141.241 
		428.138,167.724 450.207,167.724 	"/>
	<polyline style="fill:#2FA8CC;" points="132.414,211.862 132.414,141.241 35.31,79.448 35.31,158.897 	"/>
	<polygon style="fill:#65DDB9;" points="132.414,211.862 132.414,247.172 35.31,185.379 35.31,158.897 70.621,141.241 
		83.862,167.724 105.931,167.724 	"/>
</g>
<g>
</g>
<g>
</g>
<g>
</g>
<g>
</g>
<g>
</g>
<g>
</g>
<g>
</g>
<g>
</g>
<g>
</g>
<g>
</g>
<g>
</g>
<g>
</g>
<g>
</g>
<g>
</g>
<g>
</g>
</svg>
